<svg viewBox="0 0 1024 1024" version="1.1" xmlns="http://www.w3.org/2000/svg"><path d="M941.2608 856.576H80.00853333c-15.29173333 0-28.39893333-12.56106667-28.39893333-28.39893333v-67.72053333c0-15.29173333 12.56106667-28.39893333 28.39893333-28.39893334h861.25226667c15.29173333 0 28.39893333 12.56106667 28.39893333 28.39893334v67.72053333c-0.54613333 15.83786667-13.1072 28.39893333-28.39893333 28.39893333zM570.43626667 239.44533334c-148.54826667-16.93013333-291.6352 48.60586667-382.83946667 164.38613333l-84.10453333-48.05973333-1.6384 317.8496 280.71253333-158.9248-85.74293333-48.60586667c65.536-74.27413333 161.10933333-115.23413333 259.95946666-103.76533333 138.17173333 15.29173333 247.3984 128.34133333 268.15146667 273.06666666 2.18453333 15.29173333 15.83786667 26.76053333 31.67573333 25.66826667l63.35146667-3.82293333c17.47626667-1.09226667 30.03733333-16.93013333 27.8528-34.4064-26.76053333-202.06933333-181.31626667-360.99413333-377.37813333-383.3856z"></path></svg>